<?xml version="1.0" encoding="UTF-8" standalone="no"?>
<!-- Created with Inkscape (http://www.inkscape.org/) -->

<svg
   xmlns:dc="http://purl.org/dc/elements/1.1/"
   xmlns:cc="http://creativecommons.org/ns#"
   xmlns:rdf="http://www.w3.org/1999/02/22-rdf-syntax-ns#"
   xmlns:svg="http://www.w3.org/2000/svg"
   xmlns="http://www.w3.org/2000/svg"
   xmlns:sodipodi="http://sodipodi.sourceforge.net/DTD/sodipodi-0.dtd"
   xmlns:inkscape="http://www.inkscape.org/namespaces/inkscape"
   width="28"
   height="28"
   viewBox="0 0 28 28"
   id="svg4725"
   version="1.1"
   inkscape:version="0.91 r13725"
   sodipodi:docname="hamburger.svg">
  <defs
     id="defs4727" />
  <sodipodi:namedview
     id="base"
     pagecolor="#ffffff"
     bordercolor="#666666"
     borderopacity="1.0"
     inkscape:pageopacity="0.0"
     inkscape:pageshadow="2"
     inkscape:zoom="15.839192"
     inkscape:cx="15.853654"
     inkscape:cy="14.157144"
     inkscape:document-units="px"
     inkscape:current-layer="layer1"
     showgrid="true"
     units="px"
     inkscape:window-width="1366"
     inkscape:window-height="702"
     inkscape:window-x="0"
     inkscape:window-y="27"
     inkscape:window-maximized="1"
     inkscape:snap-others="true"
     inkscape:snap-midpoints="false">
    <inkscape:grid
       type="xygrid"
       id="grid4144" />
  </sodipodi:namedview>
  <metadata
     id="metadata4730">
    <rdf:RDF>
      <cc:Work
         rdf:about="">
        <dc:format>image/svg+xml</dc:format>
        <dc:type
           rdf:resource="http://purl.org/dc/dcmitype/StillImage" />
        <dc:title />
      </cc:Work>
    </rdf:RDF>
  </metadata>
  <g
     inkscape:label="Capa 1"
     inkscape:groupmode="layer"
     id="layer1"
     transform="translate(0,-1024.3622)">
    <path
       inkscape:connector-curvature="0"
       d="m 7.1428568,1034.1621 13.7142852,0 C 21.488,1034.1621 22,1033.535 22,1032.7622 c 0,-0.7727 -0.512,-1.4 -1.142858,-1.4 l -13.7142852,0 c -0.630857,0 -1.1428568,0.6273 -1.1428568,1.4 0,0.7728 0.5119998,1.3999 1.1428568,1.3999 z m 13.7142852,2.8001 -13.7142852,0 C 6.5119998,1036.9622 6,1037.5893 6,1038.3621 c 0,0.7729 0.5119998,1.4001 1.1428568,1.4001 l 13.7142852,0 C 21.488,1039.7622 22,1039.135 22,1038.3621 c 0,-0.7728 -0.512,-1.3999 -1.142858,-1.3999 z m 0,5.6 -13.7142852,0 c -0.630857,0 -1.1428568,0.6272 -1.1428568,1.4 0,0.7727 0.5119998,1.4 1.1428568,1.4 l 13.7142852,0 c 0.630858,0 1.142858,-0.6274 1.142858,-1.4 0,-0.7728 -0.512,-1.4 -1.142858,-1.4 z"
       id="path3"
       style="fill:#a0a0a0;fill-opacity:1;stroke:none;stroke-width:0.72508806;stroke-opacity:1" />
  </g>
</svg>
