<?xml version="1.0" encoding="UTF-8"?>
<!-- Generator: Adobe Illustrator 18.1.1, SVG Export Plug-In . SVG Version: 6.00 Build 0)  -->
<svg version="1.1" id="Layer_1" xmlns="http://www.w3.org/2000/svg" xmlns:xlink="http://www.w3.org/1999/xlink" x="0px" y="0px" height="300" width="300px" viewBox="0 0 300 300" enable-background="new 0 0 300 300" xml:space="preserve">
<rect fill="none" width="300" height="300"/>
<path fill="#010101" d="M150,30L150,30c5.8,0,10.5,6.7,10.5,15v30c0,8.3-4.7,15-10.5,15l0,0c-5.8,0-10.5-6.7-10.5-15V45  C139.5,36.7,144.2,30,150,30z">

</path>
<path fill="#989898" d="M210,46.1L210,46.1c5,2.9,5.7,11.1,1.6,18.2l-15,26c-4.1,7.2-11.6,10.6-16.6,7.7l0,0  c-5-2.9-5.7-11.1-1.6-18.2l15-26C197.5,46.6,205,43.2,210,46.1z">

</path>
<path fill="#888888" d="M253.9,90L253.9,90c2.9,5-0.6,12.5-7.7,16.6l-26,15c-7.2,4.1-15.3,3.4-18.2-1.6l0,0  c-2.9-5,0.6-12.5,7.7-16.6l26-15C242.9,84.3,251,85,253.9,90z">

</path>
<path fill="#787878" d="M270,150L270,150c0,5.8-6.7,10.5-15,10.5h-30c-8.3,0-15-4.7-15-10.5l0,0c0-5.8,6.7-10.5,15-10.5h30  C263.3,139.5,270,144.2,270,150z">

</path>
<path fill="#676767" d="M253.9,210L253.9,210c-2.9,5-11.1,5.7-18.2,1.6l-26-15c-7.2-4.1-10.6-11.6-7.7-16.6l0,0  c2.9-5,11.1-5.7,18.2-1.6l26,15C253.4,197.5,256.8,205,253.9,210z">

</path>
<path fill="#565656" d="M210,253.9L210,253.9c-5,2.9-12.5-0.6-16.6-7.7l-15-26c-4.1-7.2-3.4-15.3,1.6-18.2l0,0  c5-2.9,12.5,0.6,16.6,7.7l15,26C215.7,242.9,215,251,210,253.9z">

</path>
<path fill="#454545" d="M150,270L150,270c-5.8,0-10.5-6.7-10.5-15v-30c0-8.3,4.7-15,10.5-15l0,0c5.8,0,10.5,6.7,10.5,15v30  C160.5,263.3,155.8,270,150,270z">

</path>
<path fill="#333333" d="M90,253.9L90,253.9c-5-2.9-5.7-11.1-1.6-18.2l15-26c4.1-7.2,11.6-10.6,16.6-7.7l0,0c5,2.9,5.7,11.1,1.6,18.2  l-15,26C102.5,253.4,95,256.8,90,253.9z">

</path>
<path fill="#222222" d="M46.1,210L46.1,210c-2.9-5,0.6-12.5,7.7-16.6l26-15C87,174.3,95.1,175,98,180l0,0c2.9,5-0.6,12.5-7.7,16.6  l-26,15C57.1,215.7,49,215,46.1,210z">

</path>
<path fill="#131313" d="M30,150L30,150c0-5.8,6.7-10.5,15-10.5h30c8.3,0,15,4.7,15,10.5l0,0c0,5.8-6.7,10.5-15,10.5H45  C36.7,160.5,30,155.8,30,150z">

</path>
<path fill="#010101" d="M46.1,90L46.1,90c2.9-5,11.1-5.7,18.2-1.6l26,15c7.2,4.1,10.6,11.6,7.7,16.6l0,0c-2.9,5-11.1,5.7-18.2,1.6  l-26-15C46.6,102.5,43.2,95,46.1,90z">

</path>
<path fill="#010101" d="M90,46.1L90,46.1c5-2.9,12.5,0.6,16.6,7.7l15,26C125.7,87,125,95.1,120,98l0,0c-5,2.9-12.5-0.6-16.6-7.7  l-15-26C84.3,57.1,85,49,90,46.1z">

</path>
</svg>